<svg viewBox="0 0 16 16" fill="none" xmlns="http://www.w3.org/2000/svg" id="Angle-Down--Streamline-Unicons" height="16" width="16">
  <desc>
    Angle Down Streamline Icon: https://streamlinehq.com
  </desc>
  <path d="M15.4 3.7868c-0.27873333333333333 -0.27699999999999997 -0.6556666666666666 -0.4325333333333333 -1.0486 -0.4325333333333333 -0.393 0 -0.7699333333333334 0.15553333333333333 -1.0486666666666666 0.4325333333333333l-5.339933333333333 5.265533333333333 -5.265533333333333 -5.265533333333333c-0.2786666666666666 -0.27699999999999997 -0.6556666666666666 -0.4325333333333333 -1.0486 -0.4325333333333333S0.8786666666666667 3.5098000000000003 0.6 3.7868c-0.1394 0.1383333333333333 -0.25006666666666666 0.30279999999999996 -0.3256 0.48406666666666665 -0.07553333333333333 0.18126666666666663 -0.1144 0.37566666666666665 -0.1144 0.5720666666666666 0 0.1963333333333333 0.03886666666666666 0.39073333333333327 0.1144 0.5720666666666666 0.07553333333333333 0.1811333333333333 0.18619999999999998 0.3456666666666666 0.3256 0.484l6.306733333333334 6.306733333333334c0.1383333333333333 0.1394 0.30279999999999996 0.25006666666666666 0.484 0.3256 0.18133333333333335 0.07553333333333333 0.3757333333333333 0.1144 0.5720666666666666 0.1144s0.39073333333333327 -0.0388 0.5720666666666666 -0.1144c0.18119999999999997 -0.07553333333333333 0.3456666666666666 -0.18619999999999998 0.484 -0.3256L15.4 5.898999999999999c0.1394 -0.1383333333333333 0.25006666666666666 -0.3028666666666666 0.3256 -0.484 0.0756 -0.18133333333333335 0.1144 -0.3757333333333333 0.1144 -0.5721333333333333 0 -0.1963333333333333 -0.0388 -0.39073333333333327 -0.1144 -0.572 -0.07553333333333333 -0.18126666666666663 -0.18619999999999998 -0.3458 -0.3256 -0.48406666666666665Z" fill="#ffffff" stroke-width="0.6667"></path>
</svg>